<svg width="83" height="40" viewBox="0 0 83 40" fill="none" xmlns="http://www.w3.org/2000/svg">
<rect width="83" height="40" rx="8" fill="#2A2D3C"/>
<path d="M31.112 14.5001C30.8817 14.1961 30.6318 13.9075 30.364 13.6361C29.5283 12.8003 28.5361 12.1374 27.4442 11.6851C26.3522 11.2328 25.1819 11 24 11C22.8181 11 21.6478 11.2328 20.5558 11.6851C19.4639 12.1374 18.4717 12.8003 17.636 13.6361C17.3684 13.9078 17.1186 14.1964 16.888 14.5001" stroke="url(#paint0_linear)" stroke-width="1.5" stroke-linecap="round" stroke-linejoin="round"/>
<path d="M16.888 25.5C17.118 25.799 17.362 26.09 17.636 26.364C18.4717 27.1997 19.4639 27.8627 20.5558 28.315C21.6478 28.7673 22.8181 29.0001 24 29.0001C25.1819 29.0001 26.3522 28.7673 27.4442 28.315C28.5361 27.8627 29.5283 27.1997 30.364 26.364C30.638 26.09 30.881 25.799 31.112 25.5" stroke="url(#paint1_linear)" stroke-width="1.5" stroke-linecap="round" stroke-linejoin="round"/>
<path d="M18.521 22.571H15.5V20.04H18.519C19.218 20.04 19.785 20.607 19.785 21.306C19.7851 21.4721 19.7525 21.6366 19.6891 21.7901C19.6256 21.9435 19.5325 22.083 19.4151 22.2005C19.2978 22.3179 19.1584 22.4111 19.0049 22.4747C18.8515 22.5383 18.6871 22.571 18.521 22.571V22.571Z" stroke="url(#paint2_linear)" stroke-width="1.5" stroke-linecap="round" stroke-linejoin="round"/>
<path d="M15.5 20.04V17.429H18.2C18.5464 17.429 18.8786 17.5666 19.1235 17.8115C19.3684 18.0564 19.506 18.3886 19.506 18.735C19.506 19.0813 19.3684 19.4135 19.1235 19.6584C18.8786 19.9034 18.5464 20.041 18.2 20.041" stroke="url(#paint3_linear)" stroke-width="1.5" stroke-linecap="round" stroke-linejoin="round"/>
<path d="M29.214 17.429L31.357 20.344L33.5 17.429" stroke="url(#paint4_linear)" stroke-width="1.5" stroke-linecap="round" stroke-linejoin="round"/>
<path d="M31.36 22.5301V20.3401" stroke="url(#paint5_linear)" stroke-width="1.5" stroke-linecap="round" stroke-linejoin="round"/>
<path d="M26.643 17.429V20.429C26.643 20.9973 26.4172 21.5424 26.0153 21.9443C25.6134 22.3462 25.0684 22.572 24.5 22.572C23.9316 22.572 23.3866 22.3462 22.9847 21.9443C22.5828 21.5424 22.357 20.9973 22.357 20.429V17.429" stroke="url(#paint6_linear)" stroke-width="1.5" stroke-linecap="round" stroke-linejoin="round"/>
<path d="M50.6457 19.988C51.1964 20.0907 51.6491 20.366 52.0037 20.814C52.3584 21.262 52.5357 21.7753 52.5357 22.354C52.5357 22.8767 52.4051 23.3387 52.1437 23.74C51.8917 24.132 51.5231 24.44 51.0377 24.664C50.5524 24.888 49.9784 25 49.3157 25H45.1017V15.228H49.1337C49.7964 15.228 50.3657 15.3353 50.8417 15.55C51.3271 15.7647 51.6911 16.0633 51.9337 16.446C52.1857 16.8287 52.3117 17.2627 52.3117 17.748C52.3117 18.3173 52.1577 18.7933 51.8497 19.176C51.5511 19.5587 51.1497 19.8293 50.6457 19.988ZM47.0617 19.26H48.8537C49.3204 19.26 49.6797 19.1573 49.9317 18.952C50.1837 18.7373 50.3097 18.434 50.3097 18.042C50.3097 17.65 50.1837 17.3467 49.9317 17.132C49.6797 16.9173 49.3204 16.81 48.8537 16.81H47.0617V19.26ZM49.0357 23.404C49.5117 23.404 49.8804 23.292 50.1417 23.068C50.4124 22.844 50.5477 22.5267 50.5477 22.116C50.5477 21.696 50.4077 21.3693 50.1277 21.136C49.8477 20.8933 49.4697 20.772 48.9937 20.772H47.0617V23.404H49.0357ZM61.4198 17.244V25H59.4458V24.02C59.1938 24.356 58.8625 24.622 58.4518 24.818C58.0505 25.0047 57.6118 25.098 57.1358 25.098C56.5292 25.098 55.9925 24.972 55.5258 24.72C55.0592 24.4587 54.6905 24.0807 54.4198 23.586C54.1585 23.082 54.0278 22.4847 54.0278 21.794V17.244H55.9878V21.514C55.9878 22.13 56.1418 22.606 56.4498 22.942C56.7578 23.2687 57.1778 23.432 57.7098 23.432C58.2512 23.432 58.6758 23.2687 58.9838 22.942C59.2918 22.606 59.4458 22.13 59.4458 21.514V17.244H61.4198ZM70.7737 17.244L65.9717 28.668H63.8857L65.5657 24.804L62.4577 17.244H64.6557L66.6577 22.662L68.6877 17.244H70.7737Z" fill="url(#paint7_linear)"/>
<defs>
<linearGradient id="paint0_linear" x1="16.888" y1="11" x2="31.3095" y2="12.2863" gradientUnits="userSpaceOnUse">
<stop stop-color="#70A2FF"/>
<stop offset="1" stop-color="#F76E64"/>
</linearGradient>
<linearGradient id="paint1_linear" x1="16.888" y1="25.5" x2="31.3095" y2="26.7863" gradientUnits="userSpaceOnUse">
<stop stop-color="#70A2FF"/>
<stop offset="1" stop-color="#F76E64"/>
</linearGradient>
<linearGradient id="paint2_linear" x1="15.5" y1="20.04" x2="19.873" y2="20.2025" gradientUnits="userSpaceOnUse">
<stop stop-color="#70A2FF"/>
<stop offset="1" stop-color="#F76E64"/>
</linearGradient>
<linearGradient id="paint3_linear" x1="15.5" y1="17.429" x2="19.5893" y2="17.5666" gradientUnits="userSpaceOnUse">
<stop stop-color="#70A2FF"/>
<stop offset="1" stop-color="#F76E64"/>
</linearGradient>
<linearGradient id="paint4_linear" x1="29.214" y1="17.429" x2="33.5895" y2="17.5702" gradientUnits="userSpaceOnUse">
<stop stop-color="#70A2FF"/>
<stop offset="1" stop-color="#F76E64"/>
</linearGradient>
<linearGradient id="paint5_linear" x1="31.36" y1="20.3401" x2="32.3818" y2="20.3503" gradientUnits="userSpaceOnUse">
<stop stop-color="#70A2FF"/>
<stop offset="1" stop-color="#F76E64"/>
</linearGradient>
<linearGradient id="paint6_linear" x1="22.357" y1="17.429" x2="26.7356" y2="17.509" gradientUnits="userSpaceOnUse">
<stop stop-color="#70A2FF"/>
<stop offset="1" stop-color="#F76E64"/>
</linearGradient>
<linearGradient id="paint7_linear" x1="44" y1="8" x2="71.5758" y2="8.68088" gradientUnits="userSpaceOnUse">
<stop stop-color="#70A2FF"/>
<stop offset="1" stop-color="#F76E64"/>
</linearGradient>
</defs>
</svg>
