<svg width="59" height="72" viewBox="0 0 59 72" fill="none" xmlns="http://www.w3.org/2000/svg">
<g filter="url(#filter0_d)">
<rect width="51" height="64" rx="8" fill="#2A2D3C" fill-opacity="0.2" shape-rendering="crispEdges"/>
<path d="M32.6119 14.5001C32.3816 14.1961 32.1318 13.9075 31.8639 13.6361C31.0282 12.8003 30.0361 12.1374 28.9441 11.6851C27.8522 11.2328 26.6818 11 25.4999 11C24.318 11 23.1477 11.2328 22.0558 11.6851C20.9638 12.1374 19.9717 12.8003 19.1359 13.6361C18.8684 13.9078 18.6185 14.1964 18.3879 14.5001" stroke="url(#paint0_linear)" stroke-width="1.5" stroke-linecap="round" stroke-linejoin="round"/>
<path d="M18.3879 25.5C18.6179 25.799 18.8619 26.09 19.1359 26.364C19.9717 27.1997 20.9638 27.8627 22.0558 28.315C23.1477 28.7673 24.318 29.0001 25.4999 29.0001C26.6818 29.0001 27.8522 28.7673 28.9441 28.315C30.0361 27.8627 31.0282 27.1997 31.8639 26.364C32.1379 26.09 32.3809 25.799 32.6119 25.5" stroke="url(#paint1_linear)" stroke-width="1.5" stroke-linecap="round" stroke-linejoin="round"/>
<path d="M20.021 22.571H17V20.04H20.019C20.718 20.04 21.285 20.607 21.285 21.306C21.2851 21.4721 21.2525 21.6366 21.1891 21.7901C21.1256 21.9435 21.0325 22.083 20.9151 22.2005C20.7978 22.3179 20.6584 22.4111 20.5049 22.4747C20.3515 22.5383 20.1871 22.571 20.021 22.571V22.571Z" stroke="url(#paint2_linear)" stroke-width="1.5" stroke-linecap="round" stroke-linejoin="round"/>
<path d="M17 20.04V17.429H19.7C20.0464 17.429 20.3786 17.5666 20.6235 17.8115C20.8684 18.0564 21.006 18.3886 21.006 18.735C21.006 19.0813 20.8684 19.4135 20.6235 19.6584C20.3786 19.9034 20.0464 20.041 19.7 20.041" stroke="url(#paint3_linear)" stroke-width="1.5" stroke-linecap="round" stroke-linejoin="round"/>
<path d="M30.714 17.429L32.857 20.344L35 17.429" stroke="url(#paint4_linear)" stroke-width="1.5" stroke-linecap="round" stroke-linejoin="round"/>
<path d="M32.86 22.5301V20.3401" stroke="url(#paint5_linear)" stroke-width="1.5" stroke-linecap="round" stroke-linejoin="round"/>
<path d="M28.1431 17.429V20.429C28.1431 20.9973 27.9173 21.5424 27.5154 21.9443C27.1135 22.3462 26.5684 22.572 26.0001 22.572C25.4317 22.572 24.8866 22.3462 24.4847 21.9443C24.0828 21.5424 23.8571 20.9973 23.8571 20.429V17.429" stroke="url(#paint6_linear)" stroke-width="1.5" stroke-linecap="round" stroke-linejoin="round"/>
<path d="M18.6457 43.988C19.1964 44.0907 19.6491 44.366 20.0037 44.814C20.3584 45.262 20.5357 45.7753 20.5357 46.354C20.5357 46.8767 20.4051 47.3387 20.1437 47.74C19.8917 48.132 19.5231 48.44 19.0377 48.664C18.5524 48.888 17.9784 49 17.3157 49H13.1017V39.228H17.1337C17.7964 39.228 18.3657 39.3353 18.8417 39.55C19.3271 39.7647 19.6911 40.0633 19.9337 40.446C20.1857 40.8287 20.3117 41.2627 20.3117 41.748C20.3117 42.3173 20.1577 42.7933 19.8497 43.176C19.5511 43.5587 19.1497 43.8293 18.6457 43.988ZM15.0617 43.26H16.8537C17.3204 43.26 17.6797 43.1573 17.9317 42.952C18.1837 42.7373 18.3097 42.434 18.3097 42.042C18.3097 41.65 18.1837 41.3467 17.9317 41.132C17.6797 40.9173 17.3204 40.81 16.8537 40.81H15.0617V43.26ZM17.0357 47.404C17.5117 47.404 17.8804 47.292 18.1417 47.068C18.4124 46.844 18.5477 46.5267 18.5477 46.116C18.5477 45.696 18.4077 45.3693 18.1277 45.136C17.8477 44.8933 17.4697 44.772 16.9937 44.772H15.0617V47.404H17.0357ZM29.4198 41.244V49H27.4458V48.02C27.1938 48.356 26.8625 48.622 26.4518 48.818C26.0505 49.0047 25.6118 49.098 25.1358 49.098C24.5292 49.098 23.9925 48.972 23.5258 48.72C23.0592 48.4587 22.6905 48.0807 22.4198 47.586C22.1585 47.082 22.0278 46.4847 22.0278 45.794V41.244H23.9878V45.514C23.9878 46.13 24.1418 46.606 24.4498 46.942C24.7578 47.2687 25.1778 47.432 25.7098 47.432C26.2512 47.432 26.6758 47.2687 26.9838 46.942C27.2918 46.606 27.4458 46.13 27.4458 45.514V41.244H29.4198ZM38.7737 41.244L33.9717 52.668H31.8857L33.5657 48.804L30.4577 41.244H32.6557L34.6577 46.662L36.6877 41.244H38.7737Z" fill="url(#paint7_linear)"/>
</g>
<defs>
<filter id="filter0_d" x="0" y="0" width="59" height="72" filterUnits="userSpaceOnUse" color-interpolation-filters="sRGB">
<feFlood flood-opacity="0" result="BackgroundImageFix"/>
<feColorMatrix in="SourceAlpha" type="matrix" values="0 0 0 0 0 0 0 0 0 0 0 0 0 0 0 0 0 0 127 0" result="hardAlpha"/>
<feOffset dx="4" dy="4"/>
<feGaussianBlur stdDeviation="2"/>
<feComposite in2="hardAlpha" operator="out"/>
<feColorMatrix type="matrix" values="0 0 0 0 0 0 0 0 0 0 0 0 0 0 0 0 0 0 0.25 0"/>
<feBlend mode="normal" in2="BackgroundImageFix" result="effect1_dropShadow"/>
<feBlend mode="normal" in="SourceGraphic" in2="effect1_dropShadow" result="shape"/>
</filter>
<linearGradient id="paint0_linear" x1="18.3879" y1="11" x2="32.8094" y2="12.2863" gradientUnits="userSpaceOnUse">
<stop stop-color="#70A2FF"/>
<stop offset="1" stop-color="#F76E64"/>
</linearGradient>
<linearGradient id="paint1_linear" x1="18.3879" y1="25.5" x2="32.8094" y2="26.7863" gradientUnits="userSpaceOnUse">
<stop stop-color="#70A2FF"/>
<stop offset="1" stop-color="#F76E64"/>
</linearGradient>
<linearGradient id="paint2_linear" x1="17" y1="20.04" x2="21.373" y2="20.2025" gradientUnits="userSpaceOnUse">
<stop stop-color="#70A2FF"/>
<stop offset="1" stop-color="#F76E64"/>
</linearGradient>
<linearGradient id="paint3_linear" x1="17" y1="17.429" x2="21.0893" y2="17.5666" gradientUnits="userSpaceOnUse">
<stop stop-color="#70A2FF"/>
<stop offset="1" stop-color="#F76E64"/>
</linearGradient>
<linearGradient id="paint4_linear" x1="30.714" y1="17.429" x2="35.0895" y2="17.5702" gradientUnits="userSpaceOnUse">
<stop stop-color="#70A2FF"/>
<stop offset="1" stop-color="#F76E64"/>
</linearGradient>
<linearGradient id="paint5_linear" x1="32.86" y1="20.3401" x2="33.8818" y2="20.3503" gradientUnits="userSpaceOnUse">
<stop stop-color="#70A2FF"/>
<stop offset="1" stop-color="#F76E64"/>
</linearGradient>
<linearGradient id="paint6_linear" x1="23.8571" y1="17.429" x2="28.2357" y2="17.509" gradientUnits="userSpaceOnUse">
<stop stop-color="#70A2FF"/>
<stop offset="1" stop-color="#F76E64"/>
</linearGradient>
<linearGradient id="paint7_linear" x1="12" y1="32" x2="39.5758" y2="32.6809" gradientUnits="userSpaceOnUse">
<stop stop-color="#70A2FF"/>
<stop offset="1" stop-color="#F76E64"/>
</linearGradient>
</defs>
</svg>
