<svg width="231" height="56" viewBox="0 0 231 56" fill="none" xmlns="http://www.w3.org/2000/svg">
<g filter="url(#filter0_b)">
<rect width="231" height="56" rx="8" fill="#5F97FF" fill-opacity="0.15"/>
<path d="M23 33H21C20.4696 33 19.9609 32.7893 19.5858 32.4142C19.2107 32.0391 19 31.5304 19 31V21C19 20.4696 19.2107 19.9609 19.5858 19.5858C19.9609 19.2107 20.4696 19 21 19H31C31.5304 19 32.0391 19.2107 32.4142 19.5858C32.7893 19.9609 33 20.4696 33 21V23" stroke="#5F97FF" stroke-width="1.5" stroke-linecap="round" stroke-linejoin="round"/>
<path d="M35.895 23H24.105C23.4947 23 23 23.4947 23 24.105V35.895C23 36.5053 23.4947 37 24.105 37H35.895C36.5053 37 37 36.5053 37 35.895V24.105C37 23.4947 36.5053 23 35.895 23Z" stroke="#5F97FF" stroke-width="1.5" stroke-linecap="round" stroke-linejoin="round"/>
<path d="M50.352 31.964H53.768V33H49.078V23.242H50.352V31.964ZM55.779 24.082C55.5363 24.082 55.331 23.998 55.163 23.83C54.995 23.662 54.911 23.4567 54.911 23.214C54.911 22.9713 54.995 22.766 55.163 22.598C55.331 22.43 55.5363 22.346 55.779 22.346C56.0123 22.346 56.2083 22.43 56.367 22.598C56.535 22.766 56.619 22.9713 56.619 23.214C56.619 23.4567 56.535 23.662 56.367 23.83C56.2083 23.998 56.0123 24.082 55.779 24.082ZM56.395 25.328V33H55.121V25.328H56.395ZM62.3043 25.188C63.2376 25.188 63.9936 25.4727 64.5723 26.042C65.1509 26.602 65.4403 27.414 65.4403 28.478V33H64.1803V28.66C64.1803 27.8947 63.9889 27.3113 63.6063 26.91C63.2236 26.4993 62.7009 26.294 62.0383 26.294C61.3663 26.294 60.8296 26.504 60.4283 26.924C60.0363 27.344 59.8403 27.9553 59.8403 28.758V33H58.5663V25.328H59.8403V26.42C60.0923 26.028 60.4329 25.7247 60.8623 25.51C61.3009 25.2953 61.7816 25.188 62.3043 25.188ZM71.8054 33L68.7954 29.612V33H67.5214V22.64H68.7954V28.73L71.7494 25.328H73.5274L69.9154 29.15L73.5414 33H71.8054ZM77.9829 29.15C77.9829 28.3567 78.1415 27.666 78.4589 27.078C78.7762 26.4807 79.2149 26.0187 79.7749 25.692C80.3442 25.3653 80.9929 25.202 81.7209 25.202C82.6635 25.202 83.4382 25.4307 84.0449 25.888C84.6609 26.3453 85.0669 26.98 85.2629 27.792H83.8909C83.7602 27.3253 83.5035 26.9567 83.1209 26.686C82.7475 26.4153 82.2809 26.28 81.7209 26.28C80.9929 26.28 80.4049 26.532 79.9569 27.036C79.5089 27.5307 79.2849 28.2353 79.2849 29.15C79.2849 30.074 79.5089 30.788 79.9569 31.292C80.4049 31.796 80.9929 32.048 81.7209 32.048C82.2809 32.048 82.7475 31.9173 83.1209 31.656C83.4942 31.3947 83.7509 31.0213 83.8909 30.536H85.2629C85.0575 31.32 84.6469 31.95 84.0309 32.426C83.4149 32.8927 82.6449 33.126 81.7209 33.126C80.9929 33.126 80.3442 32.9627 79.7749 32.636C79.2149 32.3093 78.7762 31.8473 78.4589 31.25C78.1415 30.6527 77.9829 29.9527 77.9829 29.15ZM90.3088 33.126C89.5901 33.126 88.9368 32.9627 88.3488 32.636C87.7701 32.3093 87.3128 31.8473 86.9768 31.25C86.6501 30.6433 86.4868 29.9433 86.4868 29.15C86.4868 28.366 86.6548 27.6753 86.9908 27.078C87.3361 26.4713 87.8028 26.0093 88.3908 25.692C88.9788 25.3653 89.6368 25.202 90.3648 25.202C91.0928 25.202 91.7508 25.3653 92.3388 25.692C92.9268 26.0093 93.3888 26.4667 93.7248 27.064C94.0701 27.6613 94.2428 28.3567 94.2428 29.15C94.2428 29.9433 94.0654 30.6433 93.7108 31.25C93.3654 31.8473 92.8941 32.3093 92.2968 32.636C91.6994 32.9627 91.0368 33.126 90.3088 33.126ZM90.3088 32.006C90.7661 32.006 91.1954 31.8987 91.5968 31.684C91.9981 31.4693 92.3201 31.1473 92.5628 30.718C92.8148 30.2887 92.9408 29.766 92.9408 29.15C92.9408 28.534 92.8194 28.0113 92.5768 27.582C92.3341 27.1527 92.0168 26.8353 91.6248 26.63C91.2328 26.4153 90.8081 26.308 90.3508 26.308C89.8841 26.308 89.4548 26.4153 89.0628 26.63C88.6801 26.8353 88.3721 27.1527 88.1388 27.582C87.9054 28.0113 87.7888 28.534 87.7888 29.15C87.7888 29.7753 87.9008 30.3027 88.1248 30.732C88.3581 31.1613 88.6661 31.4833 89.0488 31.698C89.4314 31.9033 89.8514 32.006 90.3088 32.006ZM97.1918 26.742C97.4438 26.3033 97.8172 25.9393 98.3118 25.65C98.8158 25.3513 99.3992 25.202 100.062 25.202C100.743 25.202 101.359 25.3653 101.91 25.692C102.47 26.0187 102.909 26.4807 103.226 27.078C103.543 27.666 103.702 28.352 103.702 29.136C103.702 29.9107 103.543 30.6013 103.226 31.208C102.909 31.8147 102.47 32.286 101.91 32.622C101.359 32.958 100.743 33.126 100.062 33.126C99.4085 33.126 98.8298 32.9813 98.3258 32.692C97.8312 32.3933 97.4532 32.0247 97.1918 31.586V36.64H95.9178V25.328H97.1918V26.742ZM102.4 29.136C102.4 28.5573 102.283 28.0533 102.05 27.624C101.817 27.1947 101.499 26.868 101.098 26.644C100.706 26.42 100.272 26.308 99.7958 26.308C99.3292 26.308 98.8952 26.4247 98.4938 26.658C98.1018 26.882 97.7845 27.2133 97.5418 27.652C97.3085 28.0813 97.1918 28.5807 97.1918 29.15C97.1918 29.7287 97.3085 30.2373 97.5418 30.676C97.7845 31.1053 98.1018 31.4367 98.4938 31.67C98.8952 31.894 99.3292 32.006 99.7958 32.006C100.272 32.006 100.706 31.894 101.098 31.67C101.499 31.4367 101.817 31.1053 102.05 30.676C102.283 30.2373 102.4 29.724 102.4 29.136ZM106.037 24.082C105.794 24.082 105.589 23.998 105.421 23.83C105.253 23.662 105.169 23.4567 105.169 23.214C105.169 22.9713 105.253 22.766 105.421 22.598C105.589 22.43 105.794 22.346 106.037 22.346C106.27 22.346 106.466 22.43 106.625 22.598C106.793 22.766 106.877 22.9713 106.877 23.214C106.877 23.4567 106.793 23.662 106.625 23.83C106.466 23.998 106.27 24.082 106.037 24.082ZM106.653 25.328V33H105.379V25.328H106.653ZM115.824 28.87C115.824 29.1127 115.81 29.3693 115.782 29.64H109.65C109.697 30.396 109.953 30.9887 110.42 31.418C110.896 31.838 111.47 32.048 112.142 32.048C112.693 32.048 113.15 31.922 113.514 31.67C113.887 31.4087 114.149 31.0633 114.298 30.634H115.67C115.465 31.3713 115.054 31.9733 114.438 32.44C113.822 32.8973 113.057 33.126 112.142 33.126C111.414 33.126 110.761 32.9627 110.182 32.636C109.613 32.3093 109.165 31.8473 108.838 31.25C108.511 30.6433 108.348 29.9433 108.348 29.15C108.348 28.3567 108.507 27.6613 108.824 27.064C109.141 26.4667 109.585 26.0093 110.154 25.692C110.733 25.3653 111.395 25.202 112.142 25.202C112.87 25.202 113.514 25.3607 114.074 25.678C114.634 25.9953 115.063 26.434 115.362 26.994C115.67 27.5447 115.824 28.17 115.824 28.87ZM114.508 28.604C114.508 28.1187 114.401 27.7033 114.186 27.358C113.971 27.0033 113.677 26.7373 113.304 26.56C112.94 26.3733 112.534 26.28 112.086 26.28C111.442 26.28 110.891 26.4853 110.434 26.896C109.986 27.3067 109.729 27.876 109.664 28.604H114.508ZM117.03 29.136C117.03 28.352 117.188 27.666 117.506 27.078C117.823 26.4807 118.257 26.0187 118.808 25.692C119.368 25.3653 119.993 25.202 120.684 25.202C121.281 25.202 121.836 25.342 122.35 25.622C122.863 25.8927 123.255 26.252 123.526 26.7V22.64H124.814V33H123.526V31.558C123.274 32.0153 122.9 32.3933 122.406 32.692C121.911 32.9813 121.332 33.126 120.67 33.126C119.988 33.126 119.368 32.958 118.808 32.622C118.257 32.286 117.823 31.8147 117.506 31.208C117.188 30.6013 117.03 29.9107 117.03 29.136ZM123.526 29.15C123.526 28.5713 123.409 28.0673 123.176 27.638C122.942 27.2087 122.625 26.882 122.224 26.658C121.832 26.4247 121.398 26.308 120.922 26.308C120.446 26.308 120.012 26.42 119.62 26.644C119.228 26.868 118.915 27.1947 118.682 27.624C118.448 28.0533 118.332 28.5573 118.332 29.136C118.332 29.724 118.448 30.2373 118.682 30.676C118.915 31.1053 119.228 31.4367 119.62 31.67C120.012 31.894 120.446 32.006 120.922 32.006C121.398 32.006 121.832 31.894 122.224 31.67C122.625 31.4367 122.942 31.1053 123.176 30.676C123.409 30.2373 123.526 29.7287 123.526 29.15ZM132.253 26.378V30.9C132.253 31.2733 132.332 31.5393 132.491 31.698C132.65 31.8473 132.925 31.922 133.317 31.922H134.255V33H133.107C132.398 33 131.866 32.8367 131.511 32.51C131.156 32.1833 130.979 31.6467 130.979 30.9V26.378H129.985V25.328H130.979V23.396H132.253V25.328H134.255V26.378H132.253ZM139.145 33.126C138.426 33.126 137.773 32.9627 137.185 32.636C136.606 32.3093 136.149 31.8473 135.813 31.25C135.486 30.6433 135.323 29.9433 135.323 29.15C135.323 28.366 135.491 27.6753 135.827 27.078C136.172 26.4713 136.639 26.0093 137.227 25.692C137.815 25.3653 138.473 25.202 139.201 25.202C139.929 25.202 140.587 25.3653 141.175 25.692C141.763 26.0093 142.225 26.4667 142.561 27.064C142.906 27.6613 143.079 28.3567 143.079 29.15C143.079 29.9433 142.901 30.6433 142.547 31.25C142.201 31.8473 141.73 32.3093 141.133 32.636C140.535 32.9627 139.873 33.126 139.145 33.126ZM139.145 32.006C139.602 32.006 140.031 31.8987 140.433 31.684C140.834 31.4693 141.156 31.1473 141.399 30.718C141.651 30.2887 141.777 29.766 141.777 29.15C141.777 28.534 141.655 28.0113 141.413 27.582C141.17 27.1527 140.853 26.8353 140.461 26.63C140.069 26.4153 139.644 26.308 139.187 26.308C138.72 26.308 138.291 26.4153 137.899 26.63C137.516 26.8353 137.208 27.1527 136.975 27.582C136.741 28.0113 136.625 28.534 136.625 29.15C136.625 29.7753 136.737 30.3027 136.961 30.732C137.194 31.1613 137.502 31.4833 137.885 31.698C138.267 31.9033 138.687 32.006 139.145 32.006ZM148.01 29.15C148.01 28.3567 148.169 27.666 148.486 27.078C148.804 26.4807 149.242 26.0187 149.802 25.692C150.372 25.3653 151.02 25.202 151.748 25.202C152.691 25.202 153.466 25.4307 154.072 25.888C154.688 26.3453 155.094 26.98 155.29 27.792H153.918C153.788 27.3253 153.531 26.9567 153.148 26.686C152.775 26.4153 152.308 26.28 151.748 26.28C151.02 26.28 150.432 26.532 149.984 27.036C149.536 27.5307 149.312 28.2353 149.312 29.15C149.312 30.074 149.536 30.788 149.984 31.292C150.432 31.796 151.02 32.048 151.748 32.048C152.308 32.048 152.775 31.9173 153.148 31.656C153.522 31.3947 153.778 31.0213 153.918 30.536H155.29C155.085 31.32 154.674 31.95 154.058 32.426C153.442 32.8927 152.672 33.126 151.748 33.126C151.02 33.126 150.372 32.9627 149.802 32.636C149.242 32.3093 148.804 31.8473 148.486 31.25C148.169 30.6527 148.01 29.9527 148.01 29.15ZM158.264 22.64V33H156.99V22.64H158.264ZM161.093 24.082C160.851 24.082 160.645 23.998 160.477 23.83C160.309 23.662 160.225 23.4567 160.225 23.214C160.225 22.9713 160.309 22.766 160.477 22.598C160.645 22.43 160.851 22.346 161.093 22.346C161.327 22.346 161.523 22.43 161.681 22.598C161.849 22.766 161.933 22.9713 161.933 23.214C161.933 23.4567 161.849 23.662 161.681 23.83C161.523 23.998 161.327 24.082 161.093 24.082ZM161.709 25.328V33H160.435V25.328H161.709ZM165.155 26.742C165.407 26.3033 165.78 25.9393 166.275 25.65C166.779 25.3513 167.362 25.202 168.025 25.202C168.706 25.202 169.322 25.3653 169.873 25.692C170.433 26.0187 170.871 26.4807 171.189 27.078C171.506 27.666 171.665 28.352 171.665 29.136C171.665 29.9107 171.506 30.6013 171.189 31.208C170.871 31.8147 170.433 32.286 169.873 32.622C169.322 32.958 168.706 33.126 168.025 33.126C167.371 33.126 166.793 32.9813 166.289 32.692C165.794 32.3933 165.416 32.0247 165.155 31.586V36.64H163.881V25.328H165.155V26.742ZM170.363 29.136C170.363 28.5573 170.246 28.0533 170.013 27.624C169.779 27.1947 169.462 26.868 169.061 26.644C168.669 26.42 168.235 26.308 167.759 26.308C167.292 26.308 166.858 26.4247 166.457 26.658C166.065 26.882 165.747 27.2133 165.505 27.652C165.271 28.0813 165.155 28.5807 165.155 29.15C165.155 29.7287 165.271 30.2373 165.505 30.676C165.747 31.1053 166.065 31.4367 166.457 31.67C166.858 31.894 167.292 32.006 167.759 32.006C168.235 32.006 168.669 31.894 169.061 31.67C169.462 31.4367 169.779 31.1053 170.013 30.676C170.246 30.2373 170.363 29.724 170.363 29.136ZM174.616 26.756C174.877 26.2987 175.26 25.9253 175.764 25.636C176.268 25.3467 176.842 25.202 177.486 25.202C178.176 25.202 178.797 25.3653 179.348 25.692C179.898 26.0187 180.332 26.4807 180.65 27.078C180.967 27.666 181.126 28.352 181.126 29.136C181.126 29.9107 180.967 30.6013 180.65 31.208C180.332 31.8147 179.894 32.286 179.334 32.622C178.783 32.958 178.167 33.126 177.486 33.126C176.823 33.126 176.24 32.9813 175.736 32.692C175.241 32.4027 174.868 32.034 174.616 31.586V33H173.342V22.64H174.616V26.756ZM179.824 29.136C179.824 28.5573 179.707 28.0533 179.474 27.624C179.24 27.1947 178.923 26.868 178.522 26.644C178.13 26.42 177.696 26.308 177.22 26.308C176.753 26.308 176.319 26.4247 175.918 26.658C175.526 26.882 175.208 27.2133 174.966 27.652C174.732 28.0813 174.616 28.5807 174.616 29.15C174.616 29.7287 174.732 30.2373 174.966 30.676C175.208 31.1053 175.526 31.4367 175.918 31.67C176.319 31.894 176.753 32.006 177.22 32.006C177.696 32.006 178.13 31.894 178.522 31.67C178.923 31.4367 179.24 31.1053 179.474 30.676C179.707 30.2373 179.824 29.724 179.824 29.136ZM186.149 33.126C185.43 33.126 184.777 32.9627 184.189 32.636C183.61 32.3093 183.153 31.8473 182.817 31.25C182.49 30.6433 182.327 29.9433 182.327 29.15C182.327 28.366 182.495 27.6753 182.831 27.078C183.176 26.4713 183.643 26.0093 184.231 25.692C184.819 25.3653 185.477 25.202 186.205 25.202C186.933 25.202 187.591 25.3653 188.179 25.692C188.767 26.0093 189.229 26.4667 189.565 27.064C189.91 27.6613 190.083 28.3567 190.083 29.15C190.083 29.9433 189.905 30.6433 189.551 31.25C189.205 31.8473 188.734 32.3093 188.137 32.636C187.539 32.9627 186.877 33.126 186.149 33.126ZM186.149 32.006C186.606 32.006 187.035 31.8987 187.437 31.684C187.838 31.4693 188.16 31.1473 188.403 30.718C188.655 30.2887 188.781 29.766 188.781 29.15C188.781 28.534 188.659 28.0113 188.417 27.582C188.174 27.1527 187.857 26.8353 187.465 26.63C187.073 26.4153 186.648 26.308 186.191 26.308C185.724 26.308 185.295 26.4153 184.903 26.63C184.52 26.8353 184.212 27.1527 183.979 27.582C183.745 28.0113 183.629 28.534 183.629 29.15C183.629 29.7753 183.741 30.3027 183.965 30.732C184.198 31.1613 184.506 31.4833 184.889 31.698C185.271 31.9033 185.691 32.006 186.149 32.006ZM191.282 29.136C191.282 28.352 191.44 27.666 191.758 27.078C192.075 26.4807 192.509 26.0187 193.06 25.692C193.62 25.3653 194.24 25.202 194.922 25.202C195.594 25.202 196.177 25.3467 196.672 25.636C197.166 25.9253 197.535 26.2893 197.778 26.728V25.328H199.066V33H197.778V31.572C197.526 32.02 197.148 32.3933 196.644 32.692C196.149 32.9813 195.57 33.126 194.908 33.126C194.226 33.126 193.61 32.958 193.06 32.622C192.509 32.286 192.075 31.8147 191.758 31.208C191.44 30.6013 191.282 29.9107 191.282 29.136ZM197.778 29.15C197.778 28.5713 197.661 28.0673 197.428 27.638C197.194 27.2087 196.877 26.882 196.476 26.658C196.084 26.4247 195.65 26.308 195.174 26.308C194.698 26.308 194.264 26.42 193.872 26.644C193.48 26.868 193.167 27.1947 192.934 27.624C192.7 28.0533 192.584 28.5573 192.584 29.136C192.584 29.724 192.7 30.2373 192.934 30.676C193.167 31.1053 193.48 31.4367 193.872 31.67C194.264 31.894 194.698 32.006 195.174 32.006C195.65 32.006 196.084 31.894 196.476 31.67C196.877 31.4367 197.194 31.1053 197.428 30.676C197.661 30.2373 197.778 29.7287 197.778 29.15ZM202.493 26.574C202.717 26.1353 203.034 25.7947 203.445 25.552C203.865 25.3093 204.373 25.188 204.971 25.188V26.504H204.635C203.207 26.504 202.493 27.2787 202.493 28.828V33H201.219V25.328H202.493V26.574ZM205.965 29.136C205.965 28.352 206.124 27.666 206.441 27.078C206.759 26.4807 207.193 26.0187 207.743 25.692C208.303 25.3653 208.929 25.202 209.619 25.202C210.217 25.202 210.772 25.342 211.285 25.622C211.799 25.8927 212.191 26.252 212.461 26.7V22.64H213.749V33H212.461V31.558C212.209 32.0153 211.836 32.3933 211.341 32.692C210.847 32.9813 210.268 33.126 209.605 33.126C208.924 33.126 208.303 32.958 207.743 32.622C207.193 32.286 206.759 31.8147 206.441 31.208C206.124 30.6013 205.965 29.9107 205.965 29.136ZM212.461 29.15C212.461 28.5713 212.345 28.0673 212.111 27.638C211.878 27.2087 211.561 26.882 211.159 26.658C210.767 26.4247 210.333 26.308 209.857 26.308C209.381 26.308 208.947 26.42 208.555 26.644C208.163 26.868 207.851 27.1947 207.617 27.624C207.384 28.0533 207.267 28.5573 207.267 29.136C207.267 29.724 207.384 30.2373 207.617 30.676C207.851 31.1053 208.163 31.4367 208.555 31.67C208.947 31.894 209.381 32.006 209.857 32.006C210.333 32.006 210.767 31.894 211.159 31.67C211.561 31.4367 211.878 31.1053 212.111 30.676C212.345 30.2373 212.461 29.7287 212.461 29.15Z" fill="#5F97FF"/>
</g>
<defs>
<filter id="filter0_b" x="-24" y="-24" width="279" height="104" filterUnits="userSpaceOnUse" color-interpolation-filters="sRGB">
<feFlood flood-opacity="0" result="BackgroundImageFix"/>
<feGaussianBlur in="BackgroundImage" stdDeviation="12"/>
<feComposite in2="SourceAlpha" operator="in" result="effect1_backgroundBlur"/>
<feBlend mode="normal" in="SourceGraphic" in2="effect1_backgroundBlur" result="shape"/>
</filter>
</defs>
</svg>
