<svg width="27" height="22" viewBox="0 0 27 22" fill="none" xmlns="http://www.w3.org/2000/svg">
<path d="M21.5 9.76449V12.4312H26.8333V9.76449H21.5ZM18.8333 18.5778C20.1133 19.5245 21.78 20.7778 23.1 21.7645C23.6333 21.0578 24.1667 20.3378 24.7 19.6312C23.38 18.6445 21.7133 17.3912 20.4333 16.4312C19.9 17.1512 19.3667 17.8712 18.8333 18.5778ZM24.7 2.56449C24.1667 1.85782 23.6333 1.13782 23.1 0.431152C21.78 1.41782 20.1133 2.67115 18.8333 3.63115C19.3667 4.33782 19.9 5.05782 20.4333 5.76449C21.7133 4.80449 23.38 3.56449 24.7 2.56449ZM2.83333 7.09782C1.36666 7.09782 0.166664 8.29782 0.166664 9.76449V12.4312C0.166664 13.8978 1.36666 15.0978 2.83333 15.0978H4.16666V20.4312H6.83333V15.0978H8.16666L14.8333 19.0978V3.09782L8.16666 7.09782H2.83333ZM9.54 9.37782L12.1667 7.80448V14.3912L9.54 12.8178L8.9 12.4312H2.83333V9.76449H8.9L9.54 9.37782ZM18.1667 11.0978C18.1667 9.32448 17.3933 7.72448 16.1667 6.63115V15.5512C17.3933 14.4712 18.1667 12.8712 18.1667 11.0978Z" fill="url(#paint0_linear)"/>
<defs>
<linearGradient id="paint0_linear" x1="0.166664" y1="0.431152" x2="27.3981" y2="1.17824" gradientUnits="userSpaceOnUse">
<stop stop-color="#70A2FF"/>
<stop offset="1" stop-color="#F76E64"/>
</linearGradient>
</defs>
</svg>
