<svg width="27" height="22" viewBox="0 0 27 22" fill="none" xmlns="http://www.w3.org/2000/svg">
<path d="M21.5 9.76424V12.4309H26.8334V9.76424H21.5ZM18.8334 18.5776C20.1134 19.5242 21.78 20.7776 23.1 21.7642C23.6334 21.0576 24.1667 20.3376 24.7 19.6309C23.38 18.6442 21.7134 17.3909 20.4334 16.4309C19.9 17.1509 19.3667 17.8709 18.8334 18.5776ZM24.7 2.56424C24.1667 1.85757 23.6334 1.13757 23.1 0.430908C21.78 1.41757 20.1134 2.67091 18.8334 3.63091C19.3667 4.33757 19.9 5.05757 20.4334 5.76424C21.7134 4.80424 23.38 3.56424 24.7 2.56424ZM2.83335 7.09757C1.36669 7.09757 0.166687 8.29757 0.166687 9.76424V12.4309C0.166687 13.8976 1.36669 15.0976 2.83335 15.0976H4.16669V20.4309H6.83335V15.0976H8.16669L14.8334 19.0976V3.09757L8.16669 7.09757H2.83335ZM9.54002 9.37757L12.1667 7.80424V14.3909L9.54002 12.8176L8.90002 12.4309H2.83335V9.76424H8.90002L9.54002 9.37757ZM18.1667 11.0976C18.1667 9.32424 17.3934 7.72424 16.1667 6.63091V15.5509C17.3934 14.4709 18.1667 12.8709 18.1667 11.0976Z" fill="#ABAFC4"/>
</svg>
