<svg width="100" height="100" viewBox="0 0 100 100" fill="none" xmlns="http://www.w3.org/2000/svg">
<path opacity="0.2" d="M99.7287 50.0011C99.7287 77.47 77.4614 99.738 49.9928 99.738C22.5239 99.738 0.256226 77.47 0.256226 50.0011C0.256226 22.5326 22.5239 0.264893 49.9928 0.264893C77.4611 0.264893 99.7287 22.5326 99.7287 50.0011Z" fill="#505050"/>
<g opacity="0.8">
<path d="M49.8337 26.9233L49.5265 27.9675V58.2667L49.8337 58.5734L63.8983 50.2599L49.8337 26.9233Z" fill="white"/>
<path d="M49.8338 26.9233L35.7692 50.2599L49.8338 58.5735V43.8672V26.9233Z" fill="white"/>
<path d="M49.8337 63.1492L49.6606 63.3602V74.1535L49.8337 74.6591L63.9067 54.8398L49.8337 63.1492Z" fill="white"/>
<path d="M49.8338 74.6592V63.1492L35.7692 54.8398L49.8338 74.6592Z" fill="white"/>
<path d="M49.8337 58.5735L63.898 50.2601L49.8337 43.8674V58.5735Z" fill="white"/>
<path d="M35.7692 50.2597L49.8336 58.5732V43.8669L35.7692 50.2597Z" fill="white"/>
</g>
</svg>
