<svg width="22" height="21" viewBox="0 0 22 21" fill="none" xmlns="http://www.w3.org/2000/svg">
<path fill-rule="evenodd" clip-rule="evenodd" d="M10.566 0.0975342C10.3307 0.0975342 10.0906 0.189767 9.90806 0.374233L0.710806 9.67035C0.254546 10.1315 0 10.7529 0 11.4034V18.6267C0 19.4373 0.653173 20.0975 1.45523 20.0975H6.72865C7.5211 20.0975 8.16467 19.447 8.16467 18.6461V14.2771C8.16467 12.9373 9.24048 11.85 10.566 11.85C11.8916 11.85 12.9674 12.9373 12.9674 14.2771V18.6461C12.9674 19.447 13.611 20.0975 14.4034 20.0975H19.6768C20.4789 20.0975 21.1321 19.4373 21.1321 18.6267V11.4034C21.1321 10.7529 20.8775 10.1315 20.4213 9.67035L11.224 0.374233C11.0415 0.189767 10.8014 0.0975342 10.566 0.0975342Z" fill="url(#paint0_linear)"/>
<defs>
<linearGradient id="paint0_linear" x1="0" y1="0.0975342" x2="21.5843" y2="0.598078" gradientUnits="userSpaceOnUse">
<stop stop-color="#70A2FF"/>
<stop offset="1" stop-color="#F76E64"/>
</linearGradient>
</defs>
</svg>
