<svg width="22" height="21" viewBox="0 0 22 21" fill="none" xmlns="http://www.w3.org/2000/svg">
<path fill-rule="evenodd" clip-rule="evenodd" d="M10.566 0.0976562C10.3307 0.0976562 10.0906 0.189889 9.90806 0.374355L0.710806 9.67047C0.254546 10.1316 0 10.753 0 11.4035V18.6268C0 19.4375 0.653173 20.0977 1.45523 20.0977H6.72865C7.5211 20.0977 8.16467 19.4472 8.16467 18.6462V14.2773C8.16467 12.9375 9.24048 11.8501 10.566 11.8501C11.8916 11.8501 12.9674 12.9375 12.9674 14.2773V18.6462C12.9674 19.4472 13.611 20.0977 14.4034 20.0977H19.6768C20.4789 20.0977 21.1321 19.4375 21.1321 18.6268V11.4035C21.1321 10.753 20.8775 10.1316 20.4213 9.67047L11.224 0.374355C11.0415 0.189889 10.8014 0.0976562 10.566 0.0976562Z" fill="#ABAFC4"/>
</svg>
