<svg width="104" height="72" viewBox="0 0 104 72" fill="none" xmlns="http://www.w3.org/2000/svg">
<g filter="url(#filter0_d)">
<rect width="96" height="64" rx="8" fill="#2A2D3C" fill-opacity="0.2" shape-rendering="crispEdges"/>
<path d="M47.5 14L47.5 26" stroke="url(#paint0_linear)" stroke-width="1.5" stroke-linecap="round"/>
<path d="M52 22L47.5 26L43 22" stroke="url(#paint1_linear)" stroke-width="1.5" stroke-linecap="round"/>
<path d="M26.2111 49L24.0551 45.192H23.1311V49H21.1711V39.228H24.8391C25.5951 39.228 26.2391 39.3633 26.7711 39.634C27.3031 39.8953 27.6997 40.2547 27.9611 40.712C28.2317 41.16 28.3671 41.664 28.3671 42.224C28.3671 42.868 28.1804 43.4513 27.8071 43.974C27.4337 44.4873 26.8784 44.842 26.1411 45.038L28.4791 49H26.2111ZM23.1311 43.722H24.7691C25.3011 43.722 25.6977 43.596 25.9591 43.344C26.2204 43.0827 26.3511 42.7233 26.3511 42.266C26.3511 41.818 26.2204 41.4727 25.9591 41.23C25.6977 40.978 25.3011 40.852 24.7691 40.852H23.1311V43.722ZM37.3498 44.954C37.3498 45.234 37.3312 45.486 37.2938 45.71H31.6238C31.6705 46.27 31.8665 46.7087 32.2118 47.026C32.5572 47.3433 32.9818 47.502 33.4858 47.502C34.2138 47.502 34.7318 47.1893 35.0398 46.564H37.1538C36.9298 47.3107 36.5005 47.9267 35.8658 48.412C35.2312 48.888 34.4518 49.126 33.5278 49.126C32.7812 49.126 32.1092 48.9627 31.5118 48.636C30.9238 48.3 30.4618 47.8287 30.1258 47.222C29.7992 46.6153 29.6358 45.9153 29.6358 45.122C29.6358 44.3193 29.7992 43.6147 30.1258 43.008C30.4525 42.4013 30.9098 41.9347 31.4978 41.608C32.0858 41.2813 32.7625 41.118 33.5278 41.118C34.2652 41.118 34.9232 41.2767 35.5018 41.594C36.0898 41.9113 36.5425 42.364 36.8598 42.952C37.1865 43.5307 37.3498 44.198 37.3498 44.954ZM35.3198 44.394C35.3105 43.89 35.1285 43.4887 34.7738 43.19C34.4192 42.882 33.9852 42.728 33.4718 42.728C32.9865 42.728 32.5758 42.8773 32.2398 43.176C31.9132 43.4653 31.7125 43.8713 31.6378 44.394H35.3198ZM38.2765 45.122C38.2765 44.3193 38.4398 43.6193 38.7665 43.022C39.0931 42.4153 39.5458 41.9487 40.1245 41.622C40.7031 41.286 41.3658 41.118 42.1125 41.118C43.0738 41.118 43.8671 41.3607 44.4925 41.846C45.1271 42.322 45.5518 42.994 45.7665 43.862H43.6525C43.5405 43.526 43.3491 43.2647 43.0785 43.078C42.8171 42.882 42.4905 42.784 42.0985 42.784C41.5385 42.784 41.0951 42.9893 40.7685 43.4C40.4418 43.8013 40.2785 44.3753 40.2785 45.122C40.2785 45.8593 40.4418 46.4333 40.7685 46.844C41.0951 47.2453 41.5385 47.446 42.0985 47.446C42.8918 47.446 43.4098 47.0913 43.6525 46.382H45.7665C45.5518 47.222 45.1271 47.8893 44.4925 48.384C43.8578 48.8787 43.0645 49.126 42.1125 49.126C41.3658 49.126 40.7031 48.9627 40.1245 48.636C39.5458 48.3 39.0931 47.8333 38.7665 47.236C38.4398 46.6293 38.2765 45.9247 38.2765 45.122ZM54.4123 44.954C54.4123 45.234 54.3937 45.486 54.3563 45.71H48.6863C48.733 46.27 48.929 46.7087 49.2743 47.026C49.6197 47.3433 50.0443 47.502 50.5483 47.502C51.2763 47.502 51.7943 47.1893 52.1023 46.564H54.2163C53.9923 47.3107 53.563 47.9267 52.9283 48.412C52.2937 48.888 51.5143 49.126 50.5903 49.126C49.8437 49.126 49.1717 48.9627 48.5743 48.636C47.9863 48.3 47.5243 47.8287 47.1883 47.222C46.8617 46.6153 46.6983 45.9153 46.6983 45.122C46.6983 44.3193 46.8617 43.6147 47.1883 43.008C47.515 42.4013 47.9723 41.9347 48.5603 41.608C49.1483 41.2813 49.825 41.118 50.5903 41.118C51.3277 41.118 51.9857 41.2767 52.5643 41.594C53.1523 41.9113 53.605 42.364 53.9223 42.952C54.249 43.5307 54.4123 44.198 54.4123 44.954ZM52.3823 44.394C52.373 43.89 52.191 43.4887 51.8363 43.19C51.4817 42.882 51.0477 42.728 50.5343 42.728C50.049 42.728 49.6383 42.8773 49.3023 43.176C48.9757 43.4653 48.775 43.8713 48.7003 44.394H52.3823ZM56.837 40.32C56.4916 40.32 56.2023 40.2127 55.969 39.998C55.745 39.774 55.633 39.4987 55.633 39.172C55.633 38.8453 55.745 38.5747 55.969 38.36C56.2023 38.136 56.4916 38.024 56.837 38.024C57.1823 38.024 57.467 38.136 57.691 38.36C57.9243 38.5747 58.041 38.8453 58.041 39.172C58.041 39.4987 57.9243 39.774 57.691 39.998C57.467 40.2127 57.1823 40.32 56.837 40.32ZM57.803 41.244V49H55.843V41.244H57.803ZM62.9734 47.194L64.9334 41.244H67.0194L64.1494 49H61.7694L58.9134 41.244H61.0134L62.9734 47.194ZM75.3303 44.954C75.3303 45.234 75.3116 45.486 75.2743 45.71H69.6043C69.651 46.27 69.847 46.7087 70.1923 47.026C70.5376 47.3433 70.9623 47.502 71.4663 47.502C72.1943 47.502 72.7123 47.1893 73.0203 46.564H75.1343C74.9103 47.3107 74.481 47.9267 73.8463 48.412C73.2116 48.888 72.4323 49.126 71.5083 49.126C70.7616 49.126 70.0896 48.9627 69.4923 48.636C68.9043 48.3 68.4423 47.8287 68.1063 47.222C67.7796 46.6153 67.6163 45.9153 67.6163 45.122C67.6163 44.3193 67.7796 43.6147 68.1063 43.008C68.433 42.4013 68.8903 41.9347 69.4783 41.608C70.0663 41.2813 70.743 41.118 71.5083 41.118C72.2456 41.118 72.9036 41.2767 73.4823 41.594C74.0703 41.9113 74.523 42.364 74.8403 42.952C75.167 43.5307 75.3303 44.198 75.3303 44.954ZM73.3003 44.394C73.291 43.89 73.109 43.4887 72.7543 43.19C72.3996 42.882 71.9656 42.728 71.4523 42.728C70.967 42.728 70.5563 42.8773 70.2203 43.176C69.8936 43.4653 69.693 43.8713 69.6183 44.394H73.3003Z" fill="url(#paint2_linear)"/>
</g>
<defs>
<filter id="filter0_d" x="0" y="0" width="104" height="72" filterUnits="userSpaceOnUse" color-interpolation-filters="sRGB">
<feFlood flood-opacity="0" result="BackgroundImageFix"/>
<feColorMatrix in="SourceAlpha" type="matrix" values="0 0 0 0 0 0 0 0 0 0 0 0 0 0 0 0 0 0 127 0" result="hardAlpha"/>
<feOffset dx="4" dy="4"/>
<feGaussianBlur stdDeviation="2"/>
<feComposite in2="hardAlpha" operator="out"/>
<feColorMatrix type="matrix" values="0 0 0 0 0 0 0 0 0 0 0 0 0 0 0 0 0 0 0.25 0"/>
<feBlend mode="normal" in2="BackgroundImageFix" result="effect1_dropShadow"/>
<feBlend mode="normal" in="SourceGraphic" in2="effect1_dropShadow" result="shape"/>
</filter>
<linearGradient id="paint0_linear" x1="47.5" y1="14" x2="44.4796" y2="25.4679" gradientUnits="userSpaceOnUse">
<stop stop-color="#70A2FF"/>
<stop offset="1" stop-color="#F76E64"/>
</linearGradient>
<linearGradient id="paint1_linear" x1="52" y1="22" x2="51.9601" y2="26.0874" gradientUnits="userSpaceOnUse">
<stop stop-color="#70A2FF"/>
<stop offset="1" stop-color="#F76E64"/>
</linearGradient>
<linearGradient id="paint2_linear" x1="20" y1="32" x2="77.0794" y2="34.9231" gradientUnits="userSpaceOnUse">
<stop stop-color="#70A2FF"/>
<stop offset="1" stop-color="#F76E64"/>
</linearGradient>
</defs>
</svg>
