<svg width="112" height="40" viewBox="0 0 112 40" fill="none" xmlns="http://www.w3.org/2000/svg">
<rect width="112" height="40" rx="8" fill="#2A2D3C"/>
<path d="M23.5 14L23.5 26" stroke="url(#paint0_linear)" stroke-width="1.5" stroke-linecap="round"/>
<path d="M28 22L23.5 26L19 22" stroke="url(#paint1_linear)" stroke-width="1.5" stroke-linecap="round"/>
<path d="M50.2111 25L48.0551 21.192H47.1311V25H45.1711V15.228H48.8391C49.5951 15.228 50.2391 15.3633 50.7711 15.634C51.3031 15.8953 51.6997 16.2547 51.9611 16.712C52.2317 17.16 52.3671 17.664 52.3671 18.224C52.3671 18.868 52.1804 19.4513 51.8071 19.974C51.4337 20.4873 50.8784 20.842 50.1411 21.038L52.4791 25H50.2111ZM47.1311 19.722H48.7691C49.3011 19.722 49.6977 19.596 49.9591 19.344C50.2204 19.0827 50.3511 18.7233 50.3511 18.266C50.3511 17.818 50.2204 17.4727 49.9591 17.23C49.6977 16.978 49.3011 16.852 48.7691 16.852H47.1311V19.722ZM61.3498 20.954C61.3498 21.234 61.3312 21.486 61.2938 21.71H55.6238C55.6705 22.27 55.8665 22.7087 56.2118 23.026C56.5572 23.3433 56.9818 23.502 57.4858 23.502C58.2138 23.502 58.7318 23.1893 59.0398 22.564H61.1538C60.9298 23.3107 60.5005 23.9267 59.8658 24.412C59.2312 24.888 58.4518 25.126 57.5278 25.126C56.7812 25.126 56.1092 24.9627 55.5118 24.636C54.9238 24.3 54.4618 23.8287 54.1258 23.222C53.7992 22.6153 53.6358 21.9153 53.6358 21.122C53.6358 20.3193 53.7992 19.6147 54.1258 19.008C54.4525 18.4013 54.9098 17.9347 55.4978 17.608C56.0858 17.2813 56.7625 17.118 57.5278 17.118C58.2652 17.118 58.9232 17.2767 59.5018 17.594C60.0898 17.9113 60.5425 18.364 60.8598 18.952C61.1865 19.5307 61.3498 20.198 61.3498 20.954ZM59.3198 20.394C59.3105 19.89 59.1285 19.4887 58.7738 19.19C58.4192 18.882 57.9852 18.728 57.4718 18.728C56.9865 18.728 56.5758 18.8773 56.2398 19.176C55.9132 19.4653 55.7125 19.8713 55.6378 20.394H59.3198ZM62.2765 21.122C62.2765 20.3193 62.4398 19.6193 62.7665 19.022C63.0931 18.4153 63.5458 17.9487 64.1245 17.622C64.7031 17.286 65.3658 17.118 66.1125 17.118C67.0738 17.118 67.8671 17.3607 68.4925 17.846C69.1271 18.322 69.5518 18.994 69.7665 19.862H67.6525C67.5405 19.526 67.3491 19.2647 67.0785 19.078C66.8171 18.882 66.4905 18.784 66.0985 18.784C65.5385 18.784 65.0951 18.9893 64.7685 19.4C64.4418 19.8013 64.2785 20.3753 64.2785 21.122C64.2785 21.8593 64.4418 22.4333 64.7685 22.844C65.0951 23.2453 65.5385 23.446 66.0985 23.446C66.8918 23.446 67.4098 23.0913 67.6525 22.382H69.7665C69.5518 23.222 69.1271 23.8893 68.4925 24.384C67.8578 24.8787 67.0645 25.126 66.1125 25.126C65.3658 25.126 64.7031 24.9627 64.1245 24.636C63.5458 24.3 63.0931 23.8333 62.7665 23.236C62.4398 22.6293 62.2765 21.9247 62.2765 21.122ZM78.4123 20.954C78.4123 21.234 78.3937 21.486 78.3563 21.71H72.6863C72.733 22.27 72.929 22.7087 73.2743 23.026C73.6197 23.3433 74.0443 23.502 74.5483 23.502C75.2763 23.502 75.7943 23.1893 76.1023 22.564H78.2163C77.9923 23.3107 77.563 23.9267 76.9283 24.412C76.2937 24.888 75.5143 25.126 74.5903 25.126C73.8437 25.126 73.1717 24.9627 72.5743 24.636C71.9863 24.3 71.5243 23.8287 71.1883 23.222C70.8617 22.6153 70.6983 21.9153 70.6983 21.122C70.6983 20.3193 70.8617 19.6147 71.1883 19.008C71.515 18.4013 71.9723 17.9347 72.5603 17.608C73.1483 17.2813 73.825 17.118 74.5903 17.118C75.3277 17.118 75.9857 17.2767 76.5643 17.594C77.1523 17.9113 77.605 18.364 77.9223 18.952C78.249 19.5307 78.4123 20.198 78.4123 20.954ZM76.3823 20.394C76.373 19.89 76.191 19.4887 75.8363 19.19C75.4817 18.882 75.0477 18.728 74.5343 18.728C74.049 18.728 73.6383 18.8773 73.3023 19.176C72.9757 19.4653 72.775 19.8713 72.7003 20.394H76.3823ZM80.837 16.32C80.4916 16.32 80.2023 16.2127 79.969 15.998C79.745 15.774 79.633 15.4987 79.633 15.172C79.633 14.8453 79.745 14.5747 79.969 14.36C80.2023 14.136 80.4916 14.024 80.837 14.024C81.1823 14.024 81.467 14.136 81.691 14.36C81.9243 14.5747 82.041 14.8453 82.041 15.172C82.041 15.4987 81.9243 15.774 81.691 15.998C81.467 16.2127 81.1823 16.32 80.837 16.32ZM81.803 17.244V25H79.843V17.244H81.803ZM86.9734 23.194L88.9334 17.244H91.0194L88.1494 25H85.7694L82.9134 17.244H85.0134L86.9734 23.194ZM99.3303 20.954C99.3303 21.234 99.3116 21.486 99.2743 21.71H93.6043C93.651 22.27 93.847 22.7087 94.1923 23.026C94.5376 23.3433 94.9623 23.502 95.4663 23.502C96.1943 23.502 96.7123 23.1893 97.0203 22.564H99.1343C98.9103 23.3107 98.481 23.9267 97.8463 24.412C97.2116 24.888 96.4323 25.126 95.5083 25.126C94.7616 25.126 94.0896 24.9627 93.4923 24.636C92.9043 24.3 92.4423 23.8287 92.1063 23.222C91.7796 22.6153 91.6163 21.9153 91.6163 21.122C91.6163 20.3193 91.7796 19.6147 92.1063 19.008C92.433 18.4013 92.8903 17.9347 93.4783 17.608C94.0663 17.2813 94.743 17.118 95.5083 17.118C96.2456 17.118 96.9036 17.2767 97.4823 17.594C98.0703 17.9113 98.523 18.364 98.8403 18.952C99.167 19.5307 99.3303 20.198 99.3303 20.954ZM97.3003 20.394C97.291 19.89 97.109 19.4887 96.7543 19.19C96.3996 18.882 95.9656 18.728 95.4523 18.728C94.967 18.728 94.5563 18.8773 94.2203 19.176C93.8936 19.4653 93.693 19.8713 93.6183 20.394H97.3003Z" fill="url(#paint2_linear)"/>
<defs>
<linearGradient id="paint0_linear" x1="23.5" y1="14" x2="20.4796" y2="25.4679" gradientUnits="userSpaceOnUse">
<stop stop-color="#70A2FF"/>
<stop offset="1" stop-color="#F76E64"/>
</linearGradient>
<linearGradient id="paint1_linear" x1="28" y1="22" x2="27.9601" y2="26.0874" gradientUnits="userSpaceOnUse">
<stop stop-color="#70A2FF"/>
<stop offset="1" stop-color="#F76E64"/>
</linearGradient>
<linearGradient id="paint2_linear" x1="44" y1="8" x2="101.079" y2="10.9231" gradientUnits="userSpaceOnUse">
<stop stop-color="#70A2FF"/>
<stop offset="1" stop-color="#F76E64"/>
</linearGradient>
</defs>
</svg>
