<svg width="88" height="40" viewBox="0 0 88 40" fill="none" xmlns="http://www.w3.org/2000/svg">
<rect width="88" height="40" rx="8" fill="#2A2D3C"/>
<path d="M23.5 26L23.5 14" stroke="url(#paint0_linear)" stroke-width="1.5" stroke-linecap="round"/>
<path d="M19 18L23.5 14L28 18" stroke="url(#paint1_linear)" stroke-width="1.5" stroke-linecap="round"/>
<path d="M48.4123 25.098C47.7309 25.098 47.1149 24.9813 46.5643 24.748C46.0229 24.5147 45.5936 24.1787 45.2763 23.74C44.9589 23.3013 44.7956 22.7833 44.7863 22.186H46.8863C46.9143 22.5873 47.0543 22.9047 47.3063 23.138C47.5676 23.3713 47.9223 23.488 48.3703 23.488C48.8276 23.488 49.1869 23.3807 49.4483 23.166C49.7096 22.942 49.8403 22.6527 49.8403 22.298C49.8403 22.0087 49.7516 21.7707 49.5743 21.584C49.3969 21.3973 49.1729 21.2527 48.9023 21.15C48.6409 21.038 48.2769 20.9167 47.8103 20.786C47.1756 20.5993 46.6576 20.4173 46.2563 20.24C45.8643 20.0533 45.5236 19.778 45.2343 19.414C44.9543 19.0407 44.8143 18.546 44.8143 17.93C44.8143 17.3513 44.9589 16.8473 45.2483 16.418C45.5376 15.9887 45.9436 15.662 46.4663 15.438C46.9889 15.2047 47.5863 15.088 48.2583 15.088C49.2663 15.088 50.0829 15.3353 50.7083 15.83C51.3429 16.3153 51.6929 16.9967 51.7583 17.874H49.6023C49.5836 17.538 49.4389 17.2627 49.1683 17.048C48.9069 16.824 48.5569 16.712 48.1183 16.712C47.7356 16.712 47.4276 16.81 47.1943 17.006C46.9703 17.202 46.8583 17.4867 46.8583 17.86C46.8583 18.1213 46.9423 18.3407 47.1103 18.518C47.2876 18.686 47.5023 18.826 47.7543 18.938C48.0156 19.0407 48.3796 19.162 48.8463 19.302C49.4809 19.4887 49.9989 19.6753 50.4003 19.862C50.8016 20.0487 51.1469 20.3287 51.4363 20.702C51.7256 21.0753 51.8703 21.5653 51.8703 22.172C51.8703 22.6947 51.7349 23.18 51.4643 23.628C51.1936 24.076 50.7969 24.4353 50.2743 24.706C49.7516 24.9673 49.1309 25.098 48.4123 25.098ZM60.7795 20.954C60.7795 21.234 60.7608 21.486 60.7235 21.71H55.0535C55.1002 22.27 55.2962 22.7087 55.6415 23.026C55.9868 23.3433 56.4115 23.502 56.9155 23.502C57.6435 23.502 58.1615 23.1893 58.4695 22.564H60.5835C60.3595 23.3107 59.9302 23.9267 59.2955 24.412C58.6608 24.888 57.8815 25.126 56.9575 25.126C56.2108 25.126 55.5388 24.9627 54.9415 24.636C54.3535 24.3 53.8915 23.8287 53.5555 23.222C53.2288 22.6153 53.0655 21.9153 53.0655 21.122C53.0655 20.3193 53.2288 19.6147 53.5555 19.008C53.8822 18.4013 54.3395 17.9347 54.9275 17.608C55.5155 17.2813 56.1922 17.118 56.9575 17.118C57.6948 17.118 58.3528 17.2767 58.9315 17.594C59.5195 17.9113 59.9722 18.364 60.2895 18.952C60.6162 19.5307 60.7795 20.198 60.7795 20.954ZM58.7495 20.394C58.7402 19.89 58.5582 19.4887 58.2035 19.19C57.8488 18.882 57.4148 18.728 56.9015 18.728C56.4162 18.728 56.0055 18.8773 55.6695 19.176C55.3428 19.4653 55.1422 19.8713 55.0675 20.394H58.7495ZM66.5081 17.132C67.4321 17.132 68.1788 17.426 68.7481 18.014C69.3175 18.5927 69.6021 19.4047 69.6021 20.45V25H67.6421V20.716C67.6421 20.1 67.4881 19.6287 67.1801 19.302C66.8721 18.966 66.4521 18.798 65.9201 18.798C65.3788 18.798 64.9495 18.966 64.6321 19.302C64.3241 19.6287 64.1701 20.1 64.1701 20.716V25H62.2101V17.244H64.1701V18.21C64.4315 17.874 64.7628 17.6127 65.1641 17.426C65.5748 17.23 66.0228 17.132 66.5081 17.132ZM73.748 18.854V22.606C73.748 22.8673 73.8087 23.0587 73.93 23.18C74.0607 23.292 74.2753 23.348 74.574 23.348H75.484V25H74.252C72.6 25 71.774 24.1973 71.774 22.592V18.854H70.85V17.244H71.774V15.326H73.748V17.244H75.484V18.854H73.748Z" fill="url(#paint2_linear)"/>
<defs>
<linearGradient id="paint0_linear" x1="23.5" y1="26" x2="26.5203" y2="14.5321" gradientUnits="userSpaceOnUse">
<stop stop-color="#70A2FF"/>
<stop offset="1" stop-color="#F76E64"/>
</linearGradient>
<linearGradient id="paint1_linear" x1="19" y1="18" x2="19.0399" y2="13.9126" gradientUnits="userSpaceOnUse">
<stop stop-color="#70A2FF"/>
<stop offset="1" stop-color="#F76E64"/>
</linearGradient>
<linearGradient id="paint2_linear" x1="44" y1="8" x2="76.6744" y2="8.95618" gradientUnits="userSpaceOnUse">
<stop stop-color="#70A2FF"/>
<stop offset="1" stop-color="#F76E64"/>
</linearGradient>
</defs>
</svg>
