<svg width="84" height="72" viewBox="0 0 84 72" fill="none" xmlns="http://www.w3.org/2000/svg">
<g filter="url(#filter0_d)">
<rect width="76" height="64" rx="8" fill="#2A2D3C" fill-opacity="0.2" shape-rendering="crispEdges"/>
<path d="M37.5 26L37.5 14" stroke="url(#paint0_linear)" stroke-width="1.5" stroke-linecap="round"/>
<path d="M33 18L37.5 14L42 18" stroke="url(#paint1_linear)" stroke-width="1.5" stroke-linecap="round"/>
<path d="M27.84 46.172C27.84 42.728 22.828 43.82 22.828 41.86C22.828 41.062 23.402 40.684 24.172 40.712C25.012 40.726 25.53 41.23 25.572 41.874H27.728C27.602 40.11 26.23 39.088 24.228 39.088C22.212 39.088 20.784 40.152 20.784 41.916C20.77 45.458 25.81 44.184 25.81 46.298C25.81 46.998 25.264 47.488 24.34 47.488C23.43 47.488 22.912 46.97 22.856 46.186H20.756C20.784 48.034 22.352 49.098 24.382 49.098C26.608 49.098 27.84 47.712 27.84 46.172ZM32.8712 42.728C33.8792 42.728 34.6912 43.372 34.7192 44.394H31.0372C31.1912 43.33 31.9332 42.728 32.8712 42.728ZM36.5532 46.564H34.4392C34.1872 47.082 33.7252 47.502 32.8852 47.502C31.9052 47.502 31.1212 46.858 31.0232 45.71H36.6932C36.7352 45.458 36.7492 45.206 36.7492 44.954C36.7492 42.644 35.1672 41.118 32.9272 41.118C30.6312 41.118 29.0352 42.672 29.0352 45.122C29.0352 47.558 30.6732 49.126 32.9272 49.126C34.8452 49.126 36.1332 47.992 36.5532 46.564ZM43.6119 49H45.5719V44.45C45.5719 42.308 44.2839 41.132 42.4779 41.132C41.4839 41.132 40.6439 41.552 40.1399 42.21V41.244H38.1799V49H40.1399V44.716C40.1399 43.47 40.8259 42.798 41.8899 42.798C42.9259 42.798 43.6119 43.47 43.6119 44.716V49ZM46.9317 45.094C46.9317 47.516 48.4997 49.126 50.4737 49.126C51.6917 49.126 52.5597 48.566 53.0217 47.852V49H55.0097V38.64H53.0217V42.322C52.4897 41.594 51.5097 41.118 50.4877 41.118C48.4997 41.118 46.9317 42.672 46.9317 45.094ZM53.0357 45.122C53.0357 46.592 52.0557 47.404 50.9777 47.404C49.9277 47.404 48.9337 46.564 48.9337 45.094C48.9337 43.624 49.9277 42.84 50.9777 42.84C52.0557 42.84 53.0357 43.652 53.0357 45.122Z" fill="url(#paint2_linear)"/>
</g>
<defs>
<filter id="filter0_d" x="0" y="0" width="84" height="72" filterUnits="userSpaceOnUse" color-interpolation-filters="sRGB">
<feFlood flood-opacity="0" result="BackgroundImageFix"/>
<feColorMatrix in="SourceAlpha" type="matrix" values="0 0 0 0 0 0 0 0 0 0 0 0 0 0 0 0 0 0 127 0" result="hardAlpha"/>
<feOffset dx="4" dy="4"/>
<feGaussianBlur stdDeviation="2"/>
<feComposite in2="hardAlpha" operator="out"/>
<feColorMatrix type="matrix" values="0 0 0 0 0 0 0 0 0 0 0 0 0 0 0 0 0 0 0.25 0"/>
<feBlend mode="normal" in2="BackgroundImageFix" result="effect1_dropShadow"/>
<feBlend mode="normal" in="SourceGraphic" in2="effect1_dropShadow" result="shape"/>
</filter>
<linearGradient id="paint0_linear" x1="37.5" y1="26" x2="40.5203" y2="14.5321" gradientUnits="userSpaceOnUse">
<stop stop-color="#70A2FF"/>
<stop offset="1" stop-color="#F76E64"/>
</linearGradient>
<linearGradient id="paint1_linear" x1="33" y1="18" x2="33.0399" y2="13.9126" gradientUnits="userSpaceOnUse">
<stop stop-color="#70A2FF"/>
<stop offset="1" stop-color="#F76E64"/>
</linearGradient>
<linearGradient id="paint2_linear" x1="20" y1="32" x2="56.7503" y2="33.2099" gradientUnits="userSpaceOnUse">
<stop stop-color="#70A2FF"/>
<stop offset="1" stop-color="#F76E64"/>
</linearGradient>
</defs>
</svg>
