<svg width="25" height="25" viewBox="0 0 25 25" fill="none" xmlns="http://www.w3.org/2000/svg">
<path d="M18.864 5.73371C19.6997 6.56944 20.3627 7.5616 20.815 8.65354C21.2673 9.74548 21.5001 10.9158 21.5001 12.0977C21.5001 13.2796 21.2673 14.4499 20.815 15.5419C20.3627 16.6338 19.6997 17.626 18.864 18.4617C18.0283 19.2974 17.0361 19.9604 15.9442 20.4127C14.8522 20.865 13.6819 21.0978 12.5 21.0978C11.3181 21.0978 10.1478 20.865 9.05583 20.4127C7.96389 19.9604 6.97173 19.2974 6.136 18.4617C4.44816 16.7739 3.49994 14.4847 3.49994 12.0977C3.49994 9.71075 4.44816 7.42155 6.136 5.73371C7.82384 4.04587 10.113 3.09766 12.5 3.09766C14.887 3.09766 17.1762 4.04587 18.864 5.73371" stroke="#ABAFC4" stroke-width="1.5" stroke-linecap="round" stroke-linejoin="round"/>
<path d="M17.807 19.3547C17.423 17.5147 15.205 16.0977 12.5 16.0977C9.795 16.0977 7.577 17.5147 7.193 19.3547" stroke="#ABAFC4" stroke-width="1.5" stroke-linecap="round" stroke-linejoin="round"/>
<path d="M14.621 7.97677C14.9123 8.25232 15.1454 8.58347 15.3066 8.95066C15.4677 9.31784 15.5536 9.7136 15.5592 10.1145C15.5648 10.5155 15.4899 10.9135 15.339 11.285C15.1882 11.6565 14.9644 11.994 14.6808 12.2776C14.3973 12.5611 14.0598 12.7849 13.6882 12.9358C13.3167 13.0867 12.9187 13.1615 12.5178 13.156C12.1168 13.1504 11.7211 13.0645 11.3539 12.9034C10.9867 12.7422 10.6555 12.5091 10.38 12.2178C9.85008 11.6491 9.56159 10.8969 9.5753 10.1197C9.58901 9.34248 9.90386 8.60094 10.4535 8.05129C11.0032 7.50164 11.7447 7.18679 12.5219 7.17307C13.2991 7.15936 14.0513 7.44785 14.62 7.97777" stroke="#ABAFC4" stroke-width="1.5" stroke-linecap="round" stroke-linejoin="round"/>
</svg>
