<svg width="21" height="20" viewBox="0 0 21 20" fill="none" xmlns="http://www.w3.org/2000/svg">
<path d="M16.864 3.73371C17.6997 4.56944 18.3627 5.5616 18.815 6.65354C19.2673 7.74548 19.5 8.91581 19.5 10.0977C19.5 11.2796 19.2673 12.4499 18.815 13.5419C18.3627 14.6338 17.6997 15.626 16.864 16.4617C16.0283 17.2974 15.0361 17.9604 13.9442 18.4127C12.8522 18.865 11.6819 19.0978 10.5 19.0978C9.31809 19.0978 8.14776 18.865 7.05582 18.4127C5.96389 17.9604 4.97173 17.2974 4.13599 16.4617C2.44816 14.7739 1.49994 12.4847 1.49994 10.0977C1.49994 7.71075 2.44816 5.42155 4.13599 3.73371C5.82383 2.04587 8.11303 1.09766 10.5 1.09766C12.887 1.09766 15.1762 2.04587 16.864 3.73371" stroke="url(#paint0_linear)" stroke-width="1.5" stroke-linecap="round" stroke-linejoin="round"/>
<path d="M15.807 17.3547C15.423 15.5147 13.205 14.0977 10.5 14.0977C7.79499 14.0977 5.57699 15.5147 5.19299 17.3547" stroke="url(#paint1_linear)" stroke-width="1.5" stroke-linecap="round" stroke-linejoin="round"/>
<path d="M12.621 5.97653C12.9123 6.25208 13.1454 6.58323 13.3066 6.95041C13.4677 7.31759 13.5536 7.71336 13.5592 8.1143C13.5648 8.51525 13.4899 8.91325 13.339 9.28477C13.1882 9.65629 12.9643 9.9938 12.6808 10.2773C12.3973 10.5609 12.0598 10.7847 11.6882 10.9356C11.3167 11.0864 10.9187 11.1613 10.5178 11.1557C10.1168 11.1502 9.72106 11.0643 9.35388 10.9031C8.98669 10.742 8.65554 10.5088 8.38 10.2175C7.85008 9.64883 7.56158 8.89664 7.5753 8.11944C7.58901 7.34224 7.90386 6.6007 8.45351 6.05104C9.00316 5.50139 9.7447 5.18654 10.5219 5.17283C11.2991 5.15912 12.0513 5.44761 12.62 5.97753" stroke="url(#paint2_linear)" stroke-width="1.5" stroke-linecap="round" stroke-linejoin="round"/>
<defs>
<linearGradient id="paint0_linear" x1="1.49994" y1="1.09766" x2="19.8863" y2="1.5012" gradientUnits="userSpaceOnUse">
<stop stop-color="#70A2FF"/>
<stop offset="1" stop-color="#F76E64"/>
</linearGradient>
<linearGradient id="paint1_linear" x1="5.19299" y1="14.0977" x2="15.9847" y2="14.8695" gradientUnits="userSpaceOnUse">
<stop stop-color="#70A2FF"/>
<stop offset="1" stop-color="#F76E64"/>
</linearGradient>
<linearGradient id="paint2_linear" x1="7.57483" y1="5.17236" x2="13.6879" y2="5.30655" gradientUnits="userSpaceOnUse">
<stop stop-color="#70A2FF"/>
<stop offset="1" stop-color="#F76E64"/>
</linearGradient>
</defs>
</svg>
