<svg width="102" height="72" viewBox="0 0 102 72" fill="none" xmlns="http://www.w3.org/2000/svg">
<g filter="url(#filter0_d)">
<rect width="94" height="64" rx="8" fill="#2A2D3C" fill-opacity="0.2" shape-rendering="crispEdges"/>
<path d="M45 16L42 13L39 16" stroke="url(#paint0_linear)" stroke-width="1.5" stroke-linecap="round" stroke-linejoin="round"/>
<path d="M42 27V13" stroke="url(#paint1_linear)" stroke-width="1.5" stroke-linecap="round" stroke-linejoin="round"/>
<path d="M49 24L52 27L55 24" stroke="url(#paint2_linear)" stroke-width="1.5" stroke-linecap="round" stroke-linejoin="round"/>
<path d="M52 13V27" stroke="url(#paint3_linear)" stroke-width="1.5" stroke-linecap="round" stroke-linejoin="round"/>
<path d="M26.3425 39.228L23.6125 49H21.3025L19.4685 42.042L17.5505 49L15.2545 49.014L12.6225 39.228H14.7225L16.4445 46.816L18.4325 39.228H20.6165L22.4925 46.774L24.2285 39.228H26.3425ZM28.6163 40.32C28.2709 40.32 27.9816 40.2127 27.7483 39.998C27.5243 39.774 27.4123 39.4987 27.4123 39.172C27.4123 38.8453 27.5243 38.5747 27.7483 38.36C27.9816 38.136 28.2709 38.024 28.6163 38.024C28.9616 38.024 29.2463 38.136 29.4703 38.36C29.7036 38.5747 29.8203 38.8453 29.8203 39.172C29.8203 39.4987 29.7036 39.774 29.4703 39.998C29.2463 40.2127 28.9616 40.32 28.6163 40.32ZM29.5823 41.244V49H27.6223V41.244H29.5823ZM33.8007 42.854V46.606C33.8007 46.8673 33.8614 47.0587 33.9827 47.18C34.1134 47.292 34.3281 47.348 34.6267 47.348H35.5367V49H34.3047C32.6527 49 31.8267 48.1973 31.8267 46.592V42.854H30.9027V41.244H31.8267V39.326H33.8007V41.244H35.5367V42.854H33.8007ZM41.3145 41.132C41.9025 41.132 42.4251 41.2627 42.8825 41.524C43.3398 41.776 43.6945 42.154 43.9465 42.658C44.2078 43.1527 44.3385 43.75 44.3385 44.45V49H42.3785V44.716C42.3785 44.1 42.2245 43.6287 41.9165 43.302C41.6085 42.966 41.1885 42.798 40.6565 42.798C40.1151 42.798 39.6858 42.966 39.3685 43.302C39.0605 43.6287 38.9065 44.1 38.9065 44.716V49H36.9465V38.64H38.9065V42.21C39.1585 41.874 39.4945 41.6127 39.9145 41.426C40.3345 41.23 40.8011 41.132 41.3145 41.132ZM45.6983 45.094C45.6983 44.31 45.8523 43.6147 46.1603 43.008C46.4777 42.4013 46.907 41.9347 47.4483 41.608C47.9897 41.2813 48.5917 41.118 49.2543 41.118C49.7583 41.118 50.239 41.23 50.6963 41.454C51.1537 41.6687 51.5177 41.958 51.7883 42.322V38.64H53.7763V49H51.7883V47.852C51.5457 48.2347 51.205 48.5427 50.7663 48.776C50.3277 49.0093 49.819 49.126 49.2403 49.126C48.587 49.126 47.9897 48.958 47.4483 48.622C46.907 48.286 46.4777 47.8147 46.1603 47.208C45.8523 46.592 45.6983 45.8873 45.6983 45.094ZM51.8023 45.122C51.8023 44.646 51.709 44.24 51.5223 43.904C51.3357 43.5587 51.0837 43.2973 50.7663 43.12C50.449 42.9333 50.1083 42.84 49.7443 42.84C49.3803 42.84 49.0443 42.9287 48.7363 43.106C48.4283 43.2833 48.1763 43.5447 47.9803 43.89C47.7937 44.226 47.7003 44.6273 47.7003 45.094C47.7003 45.5607 47.7937 45.9713 47.9803 46.326C48.1763 46.6713 48.4283 46.9373 48.7363 47.124C49.0537 47.3107 49.3897 47.404 49.7443 47.404C50.1083 47.404 50.449 47.3153 50.7663 47.138C51.0837 46.9513 51.3357 46.69 51.5223 46.354C51.709 46.0087 51.8023 45.598 51.8023 45.122ZM57.6506 42.448C57.9026 42.0373 58.2293 41.7153 58.6306 41.482C59.0413 41.2487 59.5079 41.132 60.0306 41.132V43.19H59.5126C58.8966 43.19 58.4299 43.3347 58.1126 43.624C57.8046 43.9133 57.6506 44.4173 57.6506 45.136V49H55.6906V41.244H57.6506V42.448ZM60.8468 45.094C60.8468 44.31 61.0008 43.6147 61.3088 43.008C61.6261 42.4013 62.0508 41.9347 62.5828 41.608C63.1241 41.2813 63.7261 41.118 64.3888 41.118C64.9674 41.118 65.4714 41.2347 65.9008 41.468C66.3394 41.7013 66.6894 41.9953 66.9508 42.35V41.244H68.9248V49H66.9508V47.866C66.6988 48.23 66.3488 48.5333 65.9008 48.776C65.4621 49.0093 64.9534 49.126 64.3748 49.126C63.7214 49.126 63.1241 48.958 62.5828 48.622C62.0508 48.286 61.6261 47.8147 61.3088 47.208C61.0008 46.592 60.8468 45.8873 60.8468 45.094ZM66.9508 45.122C66.9508 44.646 66.8574 44.24 66.6708 43.904C66.4841 43.5587 66.2321 43.2973 65.9148 43.12C65.5974 42.9333 65.2568 42.84 64.8928 42.84C64.5288 42.84 64.1928 42.9287 63.8848 43.106C63.5768 43.2833 63.3248 43.5447 63.1288 43.89C62.9421 44.226 62.8488 44.6273 62.8488 45.094C62.8488 45.5607 62.9421 45.9713 63.1288 46.326C63.3248 46.6713 63.5768 46.9373 63.8848 47.124C64.2021 47.3107 64.5381 47.404 64.8928 47.404C65.2568 47.404 65.5974 47.3153 65.9148 47.138C66.2321 46.9513 66.4841 46.69 66.6708 46.354C66.8574 46.0087 66.9508 45.598 66.9508 45.122ZM81.591 41.244L79.323 49H77.209L75.795 43.582L74.381 49H72.253L69.971 41.244H71.959L73.331 47.152L74.815 41.244H76.887L78.343 47.138L79.715 41.244H81.591Z" fill="url(#paint4_linear)"/>
</g>
<defs>
<filter id="filter0_d" x="0" y="0" width="102" height="72" filterUnits="userSpaceOnUse" color-interpolation-filters="sRGB">
<feFlood flood-opacity="0" result="BackgroundImageFix"/>
<feColorMatrix in="SourceAlpha" type="matrix" values="0 0 0 0 0 0 0 0 0 0 0 0 0 0 0 0 0 0 127 0" result="hardAlpha"/>
<feOffset dx="4" dy="4"/>
<feGaussianBlur stdDeviation="2"/>
<feComposite in2="hardAlpha" operator="out"/>
<feColorMatrix type="matrix" values="0 0 0 0 0 0 0 0 0 0 0 0 0 0 0 0 0 0 0.25 0"/>
<feBlend mode="normal" in2="BackgroundImageFix" result="effect1_dropShadow"/>
<feBlend mode="normal" in="SourceGraphic" in2="effect1_dropShadow" result="shape"/>
</filter>
<linearGradient id="paint0_linear" x1="39" y1="13" x2="45.1199" y2="13.2686" gradientUnits="userSpaceOnUse">
<stop stop-color="#70A2FF"/>
<stop offset="1" stop-color="#F76E64"/>
</linearGradient>
<linearGradient id="paint1_linear" x1="41.5" y1="13" x2="42.5219" y2="13.0016" gradientUnits="userSpaceOnUse">
<stop stop-color="#70A2FF"/>
<stop offset="1" stop-color="#F76E64"/>
</linearGradient>
<linearGradient id="paint2_linear" x1="49" y1="24" x2="55.1199" y2="24.2686" gradientUnits="userSpaceOnUse">
<stop stop-color="#70A2FF"/>
<stop offset="1" stop-color="#F76E64"/>
</linearGradient>
<linearGradient id="paint3_linear" x1="51.5" y1="13" x2="52.5219" y2="13.0016" gradientUnits="userSpaceOnUse">
<stop stop-color="#70A2FF"/>
<stop offset="1" stop-color="#F76E64"/>
</linearGradient>
<linearGradient id="paint4_linear" x1="12" y1="32" x2="83.2444" y2="36.5607" gradientUnits="userSpaceOnUse">
<stop stop-color="#70A2FF"/>
<stop offset="1" stop-color="#F76E64"/>
</linearGradient>
</defs>
</svg>
